<?xml version="1.0" encoding="utf-8"?>
<!-- Generator: Adobe Illustrator 22.1.0, SVG Export Plug-In . SVG Version: 6.00 Build 0)  -->
<svg version="1.1" id="Lag_1" xmlns="http://www.w3.org/2000/svg" xmlns:xlink="http://www.w3.org/1999/xlink" x="0px" y="0px"
	 viewBox="0 0 146.3 63.4" style="enable-background:new 0 0 146.3 63.4;" xml:space="preserve">
<g>
	<path d="M36.6,51.1c0-0.4,0-0.8,0.1-1.1c0.1-0.4,0.6-0.6,1-0.4c0.7,0.3,1,0.9,1.1,1.5c0.1,0.7-0.1,1.3-0.7,1.7
		c-0.7,0.5-1.5,0.4-2.2,0c-0.9-0.5-1.6-1.2-2.2-2c-1.4-2-2.7-4.1-3.9-6.3c-1.1-2.1-2.2-4.2-3.3-6.4c-1-2-2.1-4-3.1-6
		c-1.2-2.3-2.3-4.5-3.5-6.8c-0.9-1.8-1.8-3.7-2.7-5.5c-0.5-1-0.9-2-1.4-2.9c-0.2-0.4-0.6-0.8-0.9-1.2c-0.1-0.1-0.3-0.2-0.5-0.2
		c-0.3-0.1-0.5,0.1-0.6,0.4c0,0.3,0,0.6,0,0.9c0,0.2,0,0.4,0,0.6c-0.1,0.4-0.6,0.6-1.1,0.4c-1-0.5-1.6-2.1-0.6-3
		c0.4-0.4,0.9-0.6,1.4-0.5c0.7,0,1.3,0.4,1.8,0.8c0.8,0.6,1.4,1.5,2,2.3c1.1,1.7,2.2,3.5,3.2,5.2c0.9,1.6,1.7,3.3,2.6,4.9
		c0.9,1.7,1.7,3.4,2.6,5c0.5,0.9,0.9,1.9,1.4,2.8c0.7,1.4,1.5,2.9,2.2,4.3c0.8,1.6,1.6,3.2,2.4,4.9c0.7,1.5,1.4,3,2.2,4.6
		c0.4,0.7,0.8,1.5,1.3,2.2c0.2,0.3,0.4,0.5,0.8,0.6c0.3,0.1,0.6-0.1,0.6-0.4C36.6,51.3,36.6,51.2,36.6,51.1
		C36.6,51.1,36.6,51.1,36.6,51.1z"/>
	<path d="M44.5,52.8c0.1-0.9,0.3-1.7,0.7-2.5c0.7-1.4,1.4-2.8,2.1-4.2c0.8-1.5,1.8-3,2.7-4.5c0.7-1.2,1.5-2.4,2.3-3.5
		c0.8-1.2,1.5-2.3,2.3-3.5c1.1-1.7,2.2-3.5,3.4-5.2c0.8-1.2,1.6-2.5,2.4-3.7c1.3-1.9,2.5-3.7,3.8-5.6c0.6-0.9,1.2-1.8,1.7-2.8
		c0.2-0.3,0.3-0.7,0.4-1.1c0.1-0.2,0-0.5-0.3-0.6c-0.2-0.1-0.4,0-0.6,0.1c-0.3,0.2-0.6,0.4-0.9,0.5c-0.5,0.3-1-0.1-1.1-0.7
		c-0.1-1,0.7-2.1,1.8-2.1c0.6,0,1.1,0.2,1.4,0.7c0.5,0.6,0.6,1.4,0.5,2.1c-0.1,0.9-0.4,1.8-0.8,2.6c-1,2.1-2.1,4.1-3.3,6.1
		c-1.1,1.9-2.3,3.7-3.5,5.5c-0.7,1.2-1.5,2.3-2.2,3.5c-0.9,1.4-1.8,2.7-2.7,4.1c-0.9,1.4-1.8,2.8-2.8,4.3c-0.8,1.3-1.7,2.5-2.5,3.8
		c-1.1,1.7-2.2,3.3-3.3,5c-0.3,0.4-0.4,0.9-0.4,1.5c0,0.4,0.3,0.7,0.7,0.5c0.2-0.1,0.4-0.3,0.6-0.4c0.2-0.1,0.4-0.3,0.6-0.3
		c0.7-0.2,1,0.3,1,1c-0.1,1-1,1.9-2,1.8c-0.7,0-1.5-0.7-1.7-1.5C44.6,53.4,44.6,53.1,44.5,52.8z"/>
	<path d="M23.3,6.1c1,0,1.9-0.1,2.8-0.1c1,0,2-0.1,3,0c1.2,0,2.3,0.1,3.5,0.1c1,0,2,0.1,3,0.1c0.8,0,1.7,0.1,2.5,0.2
		c0.4,0,0.9,0,1.3,0c0.6,0,1.2,0.1,1.8,0.1c0.4,0,0.8,0,1.3,0.1c0.9,0,1.7,0.1,2.6,0.1c0.9,0,1.7,0.1,2.6,0.1c0.8,0,1.6,0.1,2.4,0.2
		c0.9,0,1.7,0.1,2.6,0.1c1.6,0.1,3.1,0.2,4.7,0.4c1.1,0.1,2.2,0.2,3.4,0.2c0.5,0,0.9-0.1,1.4-0.3c0.4-0.1,0.6-0.5,0.4-0.8
		c-0.1-0.2-0.3-0.3-0.5-0.4c-0.2-0.1-0.4-0.2-0.6-0.3c-0.3-0.1-0.5-0.3-0.5-0.7c0-0.4,0.2-0.6,0.5-0.8c0.6-0.4,1.8-0.2,2.3,0.3
		c0.7,0.7,0.7,1.9-0.1,2.6c-0.5,0.5-1.1,0.8-1.7,1c-1.1,0.3-2.2,0.4-3.3,0.5c-1,0-2,0.1-3.1,0.1c-1.4,0-2.9,0-4.3,0
		c-1.2,0-2.3-0.1-3.5-0.2c-1.3-0.1-2.6-0.1-3.9-0.2c-0.9,0-1.9-0.1-2.8-0.2c-1.1-0.1-2.3-0.1-3.4-0.2c-0.8,0-1.7-0.1-2.5-0.1
		c-1.2-0.1-2.3-0.1-3.5-0.2c-0.8,0-1.6-0.1-2.4-0.1c-0.7,0-1.4-0.1-2-0.2c-1.1-0.1-2.1-0.2-3.2-0.3c-0.7-0.1-1.4-0.1-2.1-0.1
		c-0.5,0-1,0.1-1.4,0.3c-0.2,0.1-0.4,0.3-0.4,0.5c0,0.2,0.2,0.4,0.4,0.5c0.3,0.2,0.6,0.3,0.9,0.5c0.7,0.5,0.4,1.2-0.2,1.5
		c-0.7,0.4-1.8,0.1-2.3-0.4c-0.7-0.7-0.6-1.9,0.1-2.5c0.6-0.7,1.4-1,2.3-1.2C21.9,6.3,22.6,6.2,23.3,6.1z"/>
	<path d="M41.4,38.8c-8.4,0-14.4-6.2-14.4-13.7c-0.1-7.9,6.3-14.3,14.4-14c7.4,0.2,12.8,6,13.3,12.6c0.3,4.2-0.9,7.9-3.9,10.9
		C48,37.4,44.6,38.8,41.4,38.8z M41.8,37.9c2.8,0,6-1.4,8.6-4.2c2.6-2.8,3.7-6.2,3.4-10c-0.5-6.1-5.7-11.9-13.2-11.8
		c-3.7,0.1-6.8,1.5-9.2,4.2c-2.6,2.8-3.7,6.1-3.4,9.9C28.3,32.2,33.5,37.9,41.8,37.9z"/>
	<path d="M127.8,27.6c0,2.6-0.1,5.2-0.1,7.8c0,2.2,0,4.4,0,6.5c0,0.4-0.4,0.6-0.6,0.4c-0.1-0.1-0.2-0.3-0.2-0.4c0-0.5,0-0.9,0-1.4
		c0.2-4.8,0.2-9.7,0.2-14.5c0-0.7,0-1.3,0-2c0-0.3,0.1-0.5,0.4-0.5c0.3,0,0.4,0.1,0.5,0.4c0.2,1.2,0.5,2.5,0.7,3.7
		c0.3,1.3,0.6,2.5,0.8,3.7c0.4,2,0.8,4,1.2,6c0.1,0.4,0.1,0.7,0.3,1.1c0-0.1,0-0.2,0-0.3c-0.1-4.1-0.2-8.2-0.2-12.3
		c0-0.6,0-1.3,0-1.9c0-0.4,0.1-0.6,0.4-0.6c0.3,0,0.4,0.2,0.4,0.6c0,1.8,0,3.6,0,5.3c0,4.1,0.1,8.1,0.1,12.2c0,0.1,0,0.2,0,0.3
		c0,0.2-0.1,0.3-0.3,0.4c-0.2,0-0.3-0.1-0.4-0.3c-0.1-0.5-0.2-1.1-0.4-1.6c-0.4-1.7-0.8-3.4-1.2-5.1c-0.4-2.1-0.8-4.1-1.3-6.2
		C128.2,28.6,128,28.1,127.8,27.6C127.9,27.6,127.9,27.6,127.8,27.6z"/>
	<path d="M92.3,32c0.4-0.8,0.8-1.6,1.1-2.3c0.9-1.9,1.7-3.8,2.8-5.5c0.1-0.1,0.1-0.3,0.3-0.4c0.1-0.1,0.3-0.1,0.4-0.1
		c0.1,0,0.2,0.2,0.2,0.3c-0.1,0.3-0.2,0.5-0.3,0.8c-1,1.9-1.9,3.8-2.9,5.7c-0.2,0.3-0.4,0.6-0.5,1c-0.1,0.4,0.2,0.7,0.4,1
		c0.5,1.3,0.9,2.7,1.4,4c0.5,1.5,1.1,2.9,1.7,4.4c0.1,0.3,0.2,0.6,0.4,1c0.1,0.3,0,0.6-0.3,0.6c-0.3,0.1-0.5-0.1-0.6-0.4
		c-0.4-1.1-0.7-2.3-1.2-3.4c-0.7-1.7-1.4-3.5-2.1-5.2c-0.1-0.3-0.2-0.5-0.3-0.9c-0.2,0.5-0.6,1-0.5,1.5c0.1,1.4,0.1,2.8,0,4.2
		c0,1.2,0,2.3,0,3.5c0,0.1-0.1,0.3-0.2,0.4c-0.1,0.1-0.3,0.1-0.4,0c-0.1-0.1-0.2-0.3-0.2-0.4c0-1.4,0-2.9,0-4.3c0-1.1,0-2.3,0-3.4
		c0-3.4,0-6.7-0.1-10.1c0-0.3,0.2-0.5,0.4-0.5c0.3,0,0.4,0.2,0.4,0.5c0,2,0,4.1-0.1,6.1C92.3,30.7,92.3,31.3,92.3,32
		C92.3,31.9,92.3,32,92.3,32z"/>
	<path d="M111.5,32.8c0.8,0.3,1.4,0.8,1.8,1.5c0.3,0.6,0.5,1.2,0.6,1.9c0.2,1.3,0.2,2.6-0.2,3.9c-0.4,1.3-1.3,2.1-2.6,2.3
		c-0.8,0.1-1.5,0.1-2.2-0.2c-0.2-0.1-0.3-0.2-0.3-0.4c0.1-1.3,0.1-2.6,0.1-3.8c0-2.5,0-4.9,0-7.4c0-2.1-0.1-4.1-0.2-6.2
		c0-0.7,0-0.7,0.6-0.9c0.9-0.2,1.8-0.2,2.6,0.3c0.7,0.4,1.2,1,1.5,1.8c0.4,1.1,0.5,2.2,0.5,3.3c0,0.7-0.1,1.4-0.4,2.1
		c-0.3,0.8-0.9,1.3-1.7,1.7C111.6,32.7,111.6,32.7,111.5,32.8z M109.3,33.1c0,0.1,0,0.1,0,0.2c0,1.3,0.1,2.7,0.1,4
		c0,1.4,0,2.7,0,4.1c0,0.1,0,0.3,0.2,0.3c0.5,0.1,1.1,0.1,1.6,0c1.1-0.3,1.6-1.1,1.9-2.1c0.3-1.3,0.3-2.6,0-3.8
		c-0.1-0.6-0.3-1.3-0.8-1.8C111.5,33.1,110.4,33.2,109.3,33.1z M109.3,24.2c0,2.9,0.1,5.6,0.1,8.5c0.4-0.1,0.9-0.1,1.3-0.1
		c1.3-0.2,2.2-1,2.4-2.3c0.1-0.6,0-1.2,0-1.7c-0.1-1-0.2-1.9-0.6-2.8c-0.4-0.8-0.9-1.4-1.9-1.5C110.1,24,109.7,24.1,109.3,24.2z"/>
	<path d="M117.7,32.8c1.2,0.5,1.8,1.4,2.1,2.6c0.4,1.5,0.4,3,0,4.5c-0.4,1.3-1.2,2.2-2.6,2.5c-0.8,0.1-1.5,0.1-2.3-0.2
		c-0.2-0.1-0.3-0.2-0.2-0.4c0.2-3.1,0.2-6.2,0.2-9.2c0-2.2-0.1-4.4-0.2-6.7c0-0.6,0-1.3,0-1.9c0-0.2,0.1-0.3,0.3-0.4
		c1-0.4,2-0.4,3,0.2c0.7,0.4,1.2,1,1.5,1.8c0.4,1.1,0.5,2.2,0.5,3.3c0,0.7-0.1,1.5-0.4,2.1c-0.3,0.8-0.9,1.3-1.7,1.7
		C117.8,32.7,117.8,32.7,117.7,32.8C117.7,32.8,117.7,32.8,117.7,32.8z M115.5,33.1c0,0.1,0,0.2,0,0.2c0,1.3,0.1,2.6,0.1,4
		c0,1.4,0,2.7,0,4.1c0,0.1,0,0.3,0.2,0.3c0.5,0.1,1.1,0.1,1.6,0c1.1-0.3,1.6-1.1,1.9-2.1c0.3-1.3,0.3-2.6,0-3.8
		c-0.1-0.6-0.3-1.3-0.8-1.8C117.7,33.1,116.6,33.2,115.5,33.1z M115.4,24.2c0,2.9,0.1,5.6,0.1,8.5c0.4-0.1,0.9-0.1,1.3-0.1
		c1.3-0.2,2.2-1,2.4-2.3c0.1-0.6,0-1.2,0-1.7c-0.1-1-0.2-1.9-0.6-2.8c-0.4-0.8-0.9-1.4-1.9-1.5C116.3,24,115.9,24.1,115.4,24.2z"/>
	<path d="M107.7,30.7c0,1.8,0,3.6,0,5.3c0,1.4-0.1,2.9-0.5,4.2c-0.1,0.5-0.3,1-0.7,1.4c-0.9,1-2.5,0.8-3.1-0.3
		c-0.4-0.7-0.6-1.5-0.7-2.3c-0.4-3.5-0.3-7.1-0.4-10.7c0-1.4,0-2.8,0-4.3c0-0.1,0-0.2,0-0.4c0-0.3,0.2-0.4,0.5-0.4
		c0.2,0,0.4,0.2,0.4,0.4c0,0.3,0,0.7,0,1c0,3.5-0.1,7-0.1,10.5c0,1.4,0.1,2.7,0.4,4.1c0.1,0.4,0.3,0.9,0.4,1.3
		c0.2,0.5,0.6,0.8,1.1,0.8c0.6,0,1-0.2,1.3-0.8c0.4-0.7,0.5-1.5,0.5-2.3c0.1-2.5,0.2-5.1,0.2-7.6c0-2.1-0.1-4.2-0.1-6.4
		c0-0.2,0-0.4,0-0.6c0-0.3,0.2-0.4,0.4-0.4c0.2,0,0.4,0.2,0.4,0.4c0,0.3,0,0.7,0,1C107.7,26.8,107.7,28.8,107.7,30.7z"/>
	<path d="M121.6,24.3c0,0.3,0,0.5,0,0.8c0,1.8,0,3.6,0,5.3c0,0.6,0,1.3,0,1.9c0,0.1,0.1,0.2,0.2,0.2c0.5,0,1.1,0,1.6,0
		c0.3,0,0.6,0,0.9,0c0.2,0,0.3,0.1,0.4,0.3c0,0.2-0.1,0.4-0.3,0.4c-0.5,0-0.9,0-1.4,0.1c-0.5,0-0.9,0.1-1.4,0.1
		c0,0.7-0.1,1.3-0.1,1.9c0,2,0,4-0.1,6.1c0,0.2,0.1,0.3,0.3,0.3c1.2,0,2.3-0.1,3.5-0.1c0.1,0,0.1,0,0.2,0c0.2,0,0.3,0.2,0.3,0.4
		c0,0.2-0.1,0.3-0.3,0.3c-0.2,0-0.4,0-0.6,0c-1.2,0-2.3,0-3.5,0c-0.5,0-0.5-0.1-0.5-0.5c0-2,0.1-3.9,0.1-5.9c0-1.2-0.1-2.3,0-3.5
		c0-2.3,0.1-4.5,0.1-6.8c0-0.5,0-1,0.1-1.5c0-0.2,0.1-0.3,0.4-0.3c1-0.1,2-0.2,3-0.3c0.3,0,0.5-0.1,0.8-0.1c0.3,0,0.5,0.1,0.6,0.4
		c0,0.3-0.2,0.4-0.5,0.4c-1,0-2.1,0-3.1,0.1C122,24.3,121.8,24.3,121.6,24.3z"/>
	<path d="M79.8,24.1c0,1.4,0,2.8,0,4.2c0.1,1.4,0.1,2.8,0,4.2c0.3,0,0.6,0,0.8,0c0.6,0,1.2-0.1,1.7-0.2c0.3,0,0.5,0.2,0.5,0.4
		c0,0.3-0.2,0.4-0.5,0.5c-0.7,0-1.5,0-2.2,0.1c-0.4,0-0.4,0-0.4,0.4c0.1,2.1,0.1,4.2,0.2,6.3c0,0.6,0,1.3,0,1.9
		c0,0.4-0.1,0.5-0.4,0.5c-0.3,0-0.4-0.2-0.4-0.5c0-2.7,0-5.3,0-8c0-1-0.1-2.1-0.1-3.1c0-0.6,0-1.3,0-1.9c0-0.8-0.1-1.7-0.1-2.5
		c0-0.9,0-1.8,0-2.7c0-0.3,0.1-0.4,0.4-0.4c1.4,0.1,2.8,0.1,4.2,0.2c0.3,0,0.4,0.1,0.4,0.3c0,0.2-0.2,0.4-0.4,0.4
		c-0.8,0-1.7-0.1-2.5-0.1C80.7,24.2,80.2,24.1,79.8,24.1z"/>
	<path d="M65.7,8.8c0-2,1.7-3.4,3.4-3.4c2.1,0.1,3.4,1.6,3.4,3.4c0,2-1.5,3.5-3.6,3.4C67.1,12.1,65.7,10.6,65.7,8.8z M66.6,8.8
		c0,1.4,1.1,2.5,2.5,2.5c1.4,0,2.6-1,2.6-2.5c0-1.4-1-2.5-2.5-2.6C67.8,6.2,66.6,7.4,66.6,8.8z"/>
	<path d="M44.2,58c0,1.9-1.6,3.4-3.5,3.4c-1.8,0-3.4-1.5-3.3-3.6c0.1-1.9,1.6-3.3,3.5-3.3C42.7,54.6,44.2,56,44.2,58z M40.8,60.5
		c1.5,0,2.7-1.2,2.6-2.7c-0.1-1.3-1.2-2.4-2.7-2.4c-1.4,0.1-2.4,1.2-2.4,2.7C38.3,59.3,39.5,60.5,40.8,60.5z"/>
	<path d="M15.8,8.8c0,1.9-1.4,3.3-3.2,3.4C10.5,12.3,9,10.7,9,8.8c0-1.9,1.3-3.4,3.3-3.4C14.2,5.3,15.8,6.8,15.8,8.8z M15,8.8
		c0.1-1.3-1.1-2.6-2.5-2.6c-1.4,0-2.6,1.1-2.6,2.5c0,1.5,1.1,2.5,2.5,2.6C13.8,11.4,15,10.2,15,8.8z"/>
	<path d="M98.7,41.6c0.8,0,1.5-0.1,2.3-0.1c0.3,0,0.6,0,0.8,0c0.3,0,0.5,0.1,0.5,0.3c0,0.2-0.2,0.4-0.5,0.4c-0.9,0-1.7,0-2.6,0.1
		c-0.2,0-0.5,0-0.7,0c-0.3,0-0.4-0.1-0.4-0.4c0-0.9,0.1-1.7,0-2.6c0-1.2-0.1-2.3-0.1-3.5c0-0.6,0.1-1.1,0.1-1.7c0-0.5,0-0.9,0-1.4
		c0-1.3,0.1-2.7,0.1-4c0-1,0-2-0.1-3c0-0.6,0-1.2-0.1-1.9c0-0.3,0.2-0.5,0.4-0.5c0.3,0,0.5,0.2,0.5,0.5c0,1.1-0.1,2.2-0.1,3.3
		c0,1.5,0,3,0,4.6c0,0.5,0,1.1,0,1.6c0,0.5,0,1,0,1.5c0,1-0.1,1.9-0.1,2.9C98.7,39.1,98.7,40.3,98.7,41.6z"/>
	<path d="M86.2,33.2c1.2,0,2.4,0,3.5,0c0.2,0,0.3,0,0.5,0c0.3,0,0.5,0.2,0.5,0.5c0,0.3-0.2,0.4-0.5,0.4c-1.7-0.1-3.4-0.1-5,0
		c-0.1,0-0.2,0-0.3,0c-0.3,0-0.5-0.2-0.5-0.4c0-0.3,0.2-0.5,0.5-0.5C85.3,33.1,85.7,33.1,86.2,33.2C86.2,33.1,86.2,33.1,86.2,33.2z"
		/>
</g>
</svg>
